<?xml version="1.0" encoding="UTF-8" standalone="no"?>
<svg width="30px" height="32px" viewBox="0 0 30 32" version="1.1" xmlns="http://www.w3.org/2000/svg" xmlns:xlink="http://www.w3.org/1999/xlink">
    <!-- Generator: Sketch 39 (31667) - http://www.bohemiancoding.com/sketch -->
    <title>Group</title>
    <desc>Created with Sketch.</desc>
    <defs></defs>
    <g id="Page-1" stroke="none" stroke-width="1" fill="none" fill-rule="evenodd">
        <g id="Group" fill="#FFFFFF">
            <path d="M0,14.2222222 L0,29.2812781 C0,30.7359047 1.18082256,31.9164284 2.63842962,31.9164284 L26.40412,31.9164284 C27.8598569,31.9164284 29.0429237,30.7362736 29.0429237,29.2812781 L29.0429237,14.2222222 L0,14.2222222 L0,14.2222222 Z M9.41403958,29.944216 L2.15405673,29.944216 L2.15405673,23.9608052 L9.41403958,23.9608052 L9.41403958,29.944216 L9.41403958,29.944216 Z M9.41403958,22.2685982 L2.15405673,22.2685982 L2.15405673,16.2833429 L9.41403958,16.2833429 L9.41403958,22.2685982 L9.41403958,22.2685982 Z M18.1091875,29.944216 L10.8503268,29.944216 L10.8503268,23.9608052 L18.1088135,23.9608052 L18.1088135,29.944216 L18.1091875,29.944216 Z M18.1091875,22.2685982 L10.8503268,22.2685982 L10.8503268,16.2833429 L18.1088135,16.2833429 L18.1088135,22.2685982 L18.1091875,22.2685982 Z M26.8058316,29.944216 L19.5458487,29.944216 L19.5458487,23.9608052 L26.8058316,23.9608052 L26.8058316,29.944216 L26.8058316,29.944216 Z M26.8058316,22.2685982 L19.5458487,22.2685982 L19.5458487,16.2833429 L26.8058316,16.2833429 L26.8058316,22.2685982 L26.8058316,22.2685982 Z" id="Shape"></path>
            <path d="M29.0414275,12.0125711 L29.0414275,6.21066584 C29.0414275,4.75603925 27.860605,3.57699117 26.4029979,3.57699117 L22.3600739,3.577729 L22.3525932,1.33694738 C22.3510971,0.596168741 21.7417972,-0.00184031259 20.9907387,4.25574105e-06 C20.2430465,0.000373169408 19.6363647,0.601333533 19.6374868,1.34211218 L19.6449675,3.577729 L19.6449675,3.58289379 L8.8496236,3.577729 L8.84251697,1.33694738 C8.84102084,0.596168741 8.23172089,-0.00184031259 7.48253255,4.25574105e-06 C6.73297018,0.000373169408 6.12591443,0.601333533 6.12741056,1.34211218 L6.13638736,3.58252487 L2.63842962,3.57662226 C1.17895239,3.57662226 0,4.75567034 0,6.21029692 L0,12.0122022 L0,12.337584 L29.0406795,12.337584 L29.0406795,12.0125711 L29.0414275,12.0125711 Z M7.50609664,9.82897108 C6.0092161,9.83118456 4.78949409,8.63442863 4.7861278,7.15471591 C4.78463166,6.16455163 5.32959792,5.30203148 6.13900559,4.83609352 L6.14424205,7.15287134 C6.14424205,7.89291216 6.75503814,8.4905523 7.50273034,8.48907664 C8.25341481,8.48833882 8.8608446,7.88737845 8.85897443,7.14770655 L8.85336393,4.83055981 C9.66464177,5.29133298 10.2118522,6.15459096 10.2155926,7.14401742 C10.2174627,8.62373013 9.00821365,9.82528195 7.50609664,9.82897108 L7.50609664,9.82897108 Z M21.0161729,9.82897108 C19.5192924,9.83118456 18.2977002,8.63442863 18.2962041,7.15471591 C18.2932118,6.16455163 18.8396742,5.30203148 19.6494559,4.83609352 L19.6543183,7.15287134 C19.6565625,7.89291216 20.2654884,8.4905523 21.0128066,8.48907664 C21.7642391,8.48833882 22.3690507,7.88737845 22.3679286,7.14770655 L22.3638142,4.83055981 C23.1773363,5.29133298 23.7223025,6.15459096 23.7264169,7.14401742 C23.727165,8.62373013 22.5164198,9.82528195 21.0161729,9.82897108 L21.0161729,9.82897108 Z" id="Shape"></path>
        </g>
    </g>
</svg>