<?xml version="1.0" encoding="UTF-8" standalone="no"?>
<svg width="54px" height="54px" viewBox="0 0 54 54" version="1.1" xmlns="http://www.w3.org/2000/svg" xmlns:xlink="http://www.w3.org/1999/xlink">
    <!-- Generator: Sketch 39 (31667) - http://www.bohemiancoding.com/sketch -->
    <title>Group</title>
    <desc>Created with Sketch.</desc>
    <defs>
        <path d="M25,50 C38.8071187,50 50,38.8071187 50,25 C50,11.1928813 38.8071187,0 25,0 C11.1928813,0 0,11.1928813 0,25 C0,38.8071187 11.1928813,50 25,50 Z" id="path-1"></path>
        <filter x="-50%" y="-50%" width="200%" height="200%" filterUnits="objectBoundingBox" id="filter-2">
            <feOffset dx="0" dy="1" in="SourceAlpha" result="shadowOffsetOuter1"></feOffset>
            <feGaussianBlur stdDeviation="1" in="shadowOffsetOuter1" result="shadowBlurOuter1"></feGaussianBlur>
            <feColorMatrix values="0 0 0 0 0.332376701   0 0 0 0 0.332376701   0 0 0 0 0.332376701  0 0 0 0.5 0" type="matrix" in="shadowBlurOuter1"></feColorMatrix>
        </filter>
    </defs>
    <g id="Page-1" stroke="none" stroke-width="1" fill="none" fill-rule="evenodd">
        <g id="Group" transform="translate(2.000000, 1.000000)">
            <g id="Oval-50">
                <use fill="black" fill-opacity="1" filter="url(#filter-2)" xlink:href="#path-1"></use>
                <use fill="#FFFFFF" fill-rule="evenodd" xlink:href="#path-1"></use>
            </g>
            <path d="M37.4389601,30.7952504 C37.8555677,30.690078 38.2721753,30.5849057 38.6887828,30.4797333 C40.4072892,30.0064576 39.6782259,27.3771481 37.9597196,27.7978377 C36.6578208,28.165941 35.3559221,28.4814581 34.0540234,28.8495614 C31.4502259,27.324562 29.367188,26.1150796 27.3883019,24.9581835 C29.367188,23.8012873 31.5023019,22.591805 34.0540234,21.0668055 C35.3559221,21.4349088 36.6578208,21.7504259 37.9597196,22.1185293 C39.6782259,22.591805 40.3552132,19.9099093 38.6887828,19.4366336 C38.2721753,19.3314613 37.8555677,19.2262889 37.4389601,19.1211165 C38.1680234,18.700427 38.8970866,18.2797375 39.6261499,17.859048 C41.1363524,16.9650828 39.7823778,14.5987043 38.2721753,15.4926695 C37.543112,15.913359 36.8140487,16.3340485 36.0329095,16.8073242 C36.1370614,16.3866347 36.2932892,15.913359 36.3974411,15.4926695 C36.8661246,13.7573253 34.2102512,13.0737048 33.7415677,14.7564628 C33.3770361,16.0711176 33.0125044,17.4383585 32.7000487,18.7530132 C30.0962513,20.2780127 27.9611374,21.487495 25.9822513,22.6443912 L25.9822513,14.809049 C26.9716943,13.8099114 27.9090614,12.86336 28.8985045,11.8642225 C30.1483272,10.6021539 28.2215171,8.65646495 26.9716943,9.91853348 C26.6592386,10.2340506 26.346783,10.5495677 26.0343273,10.9176711 L26.0343273,8.34094781 C26.0343273,6.5530174 23.3263779,6.5530174 23.3263779,8.34094781 L23.3263779,10.8650849 C23.0139222,10.5495677 22.7014665,10.2340506 22.3890108,9.91853348 C21.1391881,8.65646495 19.212378,10.6021539 20.4622007,11.8642225 C21.3995678,12.8107739 22.3369349,13.7573253 23.3263779,14.7564628 L23.3263779,22.591805 C21.3474919,21.4349088 19.212378,20.2254265 16.6085805,18.700427 C16.2440489,17.3857723 15.9315932,16.0711176 15.5670615,14.7564628 C15.098378,13.0211186 12.4945805,13.7573253 12.9111881,15.4926695 C13.01534,15.913359 13.1194919,16.3340485 13.2236438,16.754738 C12.4945805,16.3340485 11.7655173,15.913359 11.036454,15.4926695 C9.52625146,14.5987043 8.12020084,17.017669 9.6824793,17.859048 C10.4115426,18.2797375 11.1406059,18.700427 11.9217451,19.1737027 C11.5051375,19.2788751 11.036454,19.4366336 10.6198464,19.541806 C8.90134007,20.0150817 9.63040336,22.6443912 11.3489097,22.2237016 C12.6508084,21.8555983 14.0047831,21.487495 15.3066818,21.1719779 C17.9104792,22.6969773 20.0455931,23.9064597 22.0244792,25.115942 C20.0455931,26.2728382 17.9104792,27.5349067 15.3066818,29.0599062 C14.0047831,28.6918029 12.6508084,28.3236995 11.3489097,28.0081824 C9.63040336,27.5349067 8.95341602,30.2168023 10.6198464,30.690078 C11.036454,30.7952504 11.5051375,30.953009 11.9217451,31.0581814 C11.1926818,31.4788709 10.4636185,31.8995604 9.6824793,32.3728361 C8.17227679,33.2668013 9.52625146,35.6331798 11.036454,34.7392146 C11.7655173,34.3185251 12.4945805,33.8978356 13.2236438,33.477146 C13.1194919,33.8978356 13.01534,34.3185251 12.9111881,34.7392146 C12.4425046,36.4745588 15.098378,37.1581793 15.5670615,35.4754212 C15.9315932,34.1607665 16.2440489,32.8461118 16.6085805,31.5314571 C19.212378,30.0064576 21.3474919,28.7969752 23.3263779,27.6400791 L23.3263779,35.4754212 C22.3890108,36.4219726 21.4516438,37.368524 20.4622007,38.3676616 C19.212378,39.6297301 21.1391881,41.5754191 22.3890108,40.3133506 C22.7014665,39.9978334 23.0139222,39.6823163 23.3263779,39.3667992 L23.3263779,41.8909362 C23.3263779,43.6788667 26.0343273,43.6788667 26.0343273,41.8909362 L26.0343273,39.314213 C26.346783,39.6297301 26.6592386,39.9452473 26.9716943,40.3133506 C28.2215171,41.5754191 30.1483272,39.6297301 28.8985045,38.3676616 C27.9090614,37.368524 26.9716943,36.4219726 25.9822513,35.422835 L25.9822513,27.5874929 C27.9611374,28.7443891 30.0962513,29.9538714 32.7000487,31.4788709 C33.0645804,32.7935256 33.429112,34.1607665 33.7415677,35.4754212 C34.2102512,37.2107654 36.8140487,36.4745588 36.3974411,34.7392146 C36.2932892,34.3185251 36.1370614,33.8452494 36.0329095,33.4245599 C36.7619727,33.8452494 37.491036,34.2659389 38.2721753,34.7392146 C39.7823778,35.3702488 41.1363524,32.9512842 39.6261499,32.0573189 C38.8970866,31.6366294 38.1680234,31.2159399 37.4389601,30.7952504 Z" id="Shape" fill="#00BDEE"></path>
        </g>
    </g>
</svg>