<?xml version="1.0" encoding="UTF-8" standalone="no"?>
<svg width="37px" height="37px" viewBox="0 0 37 37" version="1.1" xmlns="http://www.w3.org/2000/svg" xmlns:xlink="http://www.w3.org/1999/xlink">
    <!-- Generator: Sketch 39 (31667) - http://www.bohemiancoding.com/sketch -->
    <title>Group</title>
    <desc>Created with Sketch.</desc>
    <defs></defs>
    <g id="Page-1" stroke="none" stroke-width="1" fill="none" fill-rule="evenodd">
        <g id="Group" transform="translate(0.579439, 0.231884)">
            <g id="Group-2">
                <path d="M18.1320639,27.1093311 C22.9440159,27.1093311 26.8448738,23.1700446 26.8448738,18.3106885 C26.8448738,13.4513324 22.9440159,9.512046 18.1320639,9.512046 C13.3201118,9.512046 9.41925397,13.4513324 9.41925397,18.3106885 C9.41925397,23.1700446 13.3201118,27.1093311 18.1320639,27.1093311 Z" id="Oval-2" stroke="#9B9B9B" stroke-width="4"></path>
                <path d="M19.3763473,5.1707482 L19.3763473,1.4268069 C19.3763473,-0.183582488 16.9037932,-0.183582488 16.9037932,1.4268069 L16.9037932,5.1707482 C16.9037932,6.78113759 19.3763473,6.78113759 19.3763473,5.1707482 L19.3763473,5.1707482 L19.3763473,5.1707482 Z" id="Shape" fill="#9B9B9B"></path>
                <path d="M19.3763473,35.1783997 L19.3763473,31.434934 C19.3763473,29.8245446 16.9037932,29.8245446 16.9037932,31.434934 L16.9037932,35.1783997 C16.9037932,36.7887891 19.3763473,36.7887891 19.3763473,35.1783997 L19.3763473,35.1783997 L19.3763473,35.1783997 Z" id="Shape" fill="#9B9B9B"></path>
                <path d="M5.13631919,17.0546229 L1.4279589,17.0546229 C-0.166720795,17.0546229 -0.166720795,19.5515349 1.4279589,19.5515349 L5.13631919,19.5515349 C6.73099889,19.5515349 6.73099889,17.0546229 5.13631919,17.0546229 L5.13631919,17.0546229 L5.13631919,17.0546229 Z" id="Shape" fill="#9B9B9B"></path>
                <path d="M34.8512397,17.0546229 L31.1442923,17.0546229 C29.5496126,17.0546229 29.5496126,19.5515349 31.1442923,19.5515349 L34.8512397,19.5515349 C36.4459194,19.5515349 36.4459194,17.0546229 34.8512397,17.0546229 L34.8512397,17.0546229 L34.8512397,17.0546229 Z" id="Shape" fill="#9B9B9B"></path>
                <path d="M28.3147484,9.79455376 C29.1883842,8.91183589 30.062491,8.02864242 30.9361268,7.14640016 C32.0645534,6.00685705 30.3158689,4.24094571 29.1874423,5.38048882 C28.3138065,6.26320669 27.4396997,7.14640016 26.5660639,8.02864242 C25.4381082,9.16818553 27.1867927,10.9340969 28.3147484,9.79455376 L28.3147484,9.79455376 L28.3147484,9.79455376 Z" id="Shape" fill="#9B9B9B"></path>
                <path d="M7.0931692,31.2247178 C7.96633405,30.3424755 8.83996985,29.4597577 9.71360566,28.577991 C10.8420323,27.4384479 9.09381875,25.6730121 7.96492116,26.8120797 C7.09175631,27.6943219 6.21812051,28.5770398 5.3444847,29.4588065 C4.21605808,30.5988252 5.96427161,32.3642609 7.0931692,31.2247178 L7.0931692,31.2247178 L7.0931692,31.2247178 Z" id="Shape" fill="#9B9B9B"></path>
                <path d="M9.71407662,8.02864242 C8.84044081,7.14640016 7.96633405,6.26320669 7.0931692,5.38048882 C5.96474258,4.24094571 4.217,6.00638144 5.3444847,7.14640016 C6.21812051,8.02864242 7.09222728,8.91183589 7.96539212,9.79455376 C9.09381875,10.9340969 10.8420323,9.16818553 9.71407662,8.02864242 L9.71407662,8.02864242 L9.71407662,8.02864242 Z" id="Shape" fill="#9B9B9B"></path>
                <path d="M30.9365977,29.4588065 C30.0629619,28.5770398 29.1893261,27.6943219 28.3161613,26.8120797 C27.1877347,25.6725365 25.4395211,27.4379723 26.5674768,28.577991 C27.4411126,29.4597577 28.3147484,30.3424755 29.1879132,31.2247178 C30.3163399,32.3642609 32.0645534,30.5988252 30.9365977,29.4588065 L30.9365977,29.4588065 L30.9365977,29.4588065 Z" id="Shape" fill="#9B9B9B"></path>
            </g>
        </g>
    </g>
</svg>