<?xml version="1.0" encoding="UTF-8" standalone="no"?>
<svg width="32px" height="37px" viewBox="0 0 32 37" version="1.1" xmlns="http://www.w3.org/2000/svg" xmlns:xlink="http://www.w3.org/1999/xlink">
    <!-- Generator: Sketch 39 (31667) - http://www.bohemiancoding.com/sketch -->
    <title>Shape</title>
    <desc>Created with Sketch.</desc>
    <defs></defs>
    <g id="Page-1" stroke="none" stroke-width="1" fill="none" fill-rule="evenodd">
        <path d="M28.9384277,24.0271345 C29.3550353,23.9219621 29.7716429,23.8167897 30.1882505,23.7116173 C31.9067568,23.2383416 31.1776935,20.6090322 29.4591872,21.0297217 C28.1572885,21.397825 26.8553897,21.7133422 25.553491,22.0814455 C22.9496936,20.556446 20.8666556,19.3469637 18.8877695,18.1900675 C20.8666556,17.0331714 23.0017695,15.823689 25.553491,14.2986896 C26.8553897,14.6667929 28.1572885,14.98231 29.4591872,15.3504133 C31.1776935,15.823689 31.8546808,13.1417934 30.1882505,12.6685177 C29.7716429,12.5633453 29.3550353,12.4581729 28.9384277,12.3530006 C29.667491,11.9323111 30.3965543,11.5116215 31.1256175,11.090932 C32.6358201,10.1969668 31.2818454,7.83058833 29.7716429,8.72455354 C29.0425796,9.14524305 28.3135163,9.56593256 27.5323771,10.0392083 C27.636529,9.61851875 27.7927568,9.14524305 27.8969087,8.72455354 C28.3655922,6.98920931 25.7097189,6.30558886 25.2410353,7.9883469 C24.8765037,9.30300162 24.511972,10.6702425 24.1995163,11.9848972 C21.5957189,13.5098967 19.460605,14.7193791 17.4817189,15.8762752 L17.4817189,8.04093309 C18.471162,7.0417955 19.408529,6.09524411 20.3979721,5.09610652 C21.6477948,3.83403799 19.7209847,1.888349 18.471162,3.15041753 C18.1587063,3.46593467 17.8462506,3.7814518 17.5337949,4.14955512 L17.5337949,1.57283187 C17.5337949,-0.215098547 14.8258455,-0.215098547 14.8258455,1.57283187 L14.8258455,4.09696893 C14.5133898,3.7814518 14.2009341,3.46593467 13.8884785,3.15041753 C12.6386557,1.888349 10.7118456,3.83403799 11.9616683,5.09610652 C12.8990354,6.04265792 13.8364025,6.98920931 14.8258455,7.9883469 L14.8258455,15.823689 C12.8469595,14.6667929 10.7118456,13.4573105 8.10804812,11.9323111 C7.74351648,10.6176563 7.43106079,9.30300162 7.06652915,7.9883469 C6.5978456,6.25300267 3.99404816,6.98920931 4.41065575,8.72455354 C4.51480765,9.14524305 4.61895955,9.56593256 4.72311144,9.98662207 C3.99404816,9.56593256 3.26498487,9.14524305 2.53592159,8.72455354 C1.02571907,7.83058833 -0.380331549,10.249553 1.18194692,11.090932 C1.9110102,11.5116215 2.64007349,11.9323111 3.42121272,12.4055868 C3.00460513,12.5107591 2.53592159,12.6685177 2.119314,12.7736901 C0.400807684,13.2469658 1.12987097,15.8762752 2.84837728,15.4555857 C4.15027601,15.0874824 5.50425068,14.7193791 6.8061494,14.4038619 C9.40994685,15.9288614 11.5450608,17.1383437 13.5239468,18.3478261 C11.5450608,19.5047222 9.40994685,20.7667908 6.8061494,22.2917902 C5.50425068,21.9236869 4.15027601,21.5555836 2.84837728,21.2400665 C1.12987097,20.7667908 0.452883633,23.4486864 2.119314,23.9219621 C2.53592159,24.0271345 3.00460513,24.184893 3.42121272,24.2900654 C2.69214944,24.7107549 1.96308615,25.1314444 1.18194692,25.6047201 C-0.3282556,26.4986853 1.02571907,28.8650638 2.53592159,27.9710986 C3.26498487,27.5504091 3.99404816,27.1297196 4.72311144,26.7090301 C4.61895955,27.1297196 4.51480765,27.5504091 4.41065575,27.9710986 C3.94197221,29.7064429 6.5978456,30.3900633 7.06652915,28.7073053 C7.43106079,27.3926506 7.74351648,26.0779958 8.10804812,24.7633411 C10.7118456,23.2383416 12.8469595,22.0288593 14.8258455,20.8719631 L14.8258455,28.7073053 C13.8884785,29.6538567 12.9511114,30.6004081 11.9616683,31.5995457 C10.7118456,32.8616142 12.6386557,34.8073032 13.8884785,33.5452346 C14.2009341,33.2297175 14.5133898,32.9142004 14.8258455,32.5986832 L14.8258455,35.1228203 C14.8258455,36.9107507 17.5337949,36.9107507 17.5337949,35.1228203 L17.5337949,32.5460971 C17.8462506,32.8616142 18.1587063,33.1771313 18.471162,33.5452346 C19.7209847,34.8073032 21.6477948,32.8616142 20.3979721,31.5995457 C19.408529,30.6004081 18.471162,29.6538567 17.4817189,28.6547191 L17.4817189,20.819377 C19.460605,21.9762731 21.5957189,23.1857555 24.1995163,24.7107549 C24.564048,26.0254096 24.9285796,27.3926506 25.2410353,28.7073053 C25.7097189,30.4426495 28.3135163,29.7064429 27.8969087,27.9710986 C27.7927568,27.5504091 27.636529,27.0771334 27.5323771,26.6564439 C28.2614404,27.0771334 28.9905036,27.4978229 29.7716429,27.9710986 C31.2818454,28.6021329 32.6358201,26.1831682 31.1256175,25.289203 C30.3965543,24.8685135 29.667491,24.447824 28.9384277,24.0271345 Z" id="Shape" fill="#03BEEF"></path>
    </g>
</svg>