<?xml version="1.0" encoding="UTF-8" standalone="no"?>
<svg width="54px" height="54px" viewBox="0 0 54 54" version="1.1" xmlns="http://www.w3.org/2000/svg" xmlns:xlink="http://www.w3.org/1999/xlink">
    <!-- Generator: Sketch 39 (31667) - http://www.bohemiancoding.com/sketch -->
    <title>Group</title>
    <desc>Created with Sketch.</desc>
    <defs>
        <path d="M25.4205607,50.7681159 C39.2276795,50.7681159 50.4205607,39.5752347 50.4205607,25.7681159 C50.4205607,11.9609972 39.2276795,0.768115942 25.4205607,0.768115942 C11.613442,0.768115942 0.420560748,11.9609972 0.420560748,25.7681159 C0.420560748,39.5752347 11.613442,50.7681159 25.4205607,50.7681159 Z" id="path-1"></path>
        <filter x="-50%" y="-50%" width="200%" height="200%" filterUnits="objectBoundingBox" id="filter-2">
            <feOffset dx="0" dy="1" in="SourceAlpha" result="shadowOffsetOuter1"></feOffset>
            <feGaussianBlur stdDeviation="1" in="shadowOffsetOuter1" result="shadowBlurOuter1"></feGaussianBlur>
            <feColorMatrix values="0 0 0 0 0.332376701   0 0 0 0 0.332376701   0 0 0 0 0.332376701  0 0 0 0.5 0" type="matrix" in="shadowBlurOuter1"></feColorMatrix>
        </filter>
    </defs>
    <g id="Page-1" stroke="none" stroke-width="1" fill="none" fill-rule="evenodd">
        <g id="Group" transform="translate(1.579439, 0.231884)">
            <g id="Group-2">
                <g id="Oval-50">
                    <use fill="black" fill-opacity="1" filter="url(#filter-2)" xlink:href="#path-1"></use>
                    <use fill="#FFFFFF" fill-rule="evenodd" xlink:href="#path-1"></use>
                </g>
                <path d="M25.1320639,35.1093311 C29.9440159,35.1093311 33.8448738,31.1700446 33.8448738,26.3106885 C33.8448738,21.4513324 29.9440159,17.512046 25.1320639,17.512046 C20.3201118,17.512046 16.419254,21.4513324 16.419254,26.3106885 C16.419254,31.1700446 20.3201118,35.1093311 25.1320639,35.1093311 Z" id="Oval-2" stroke="#F6A623" stroke-width="4"></path>
                <path d="M26.3763473,13.1707482 L26.3763473,9.4268069 C26.3763473,7.81641751 23.9037932,7.81641751 23.9037932,9.4268069 L23.9037932,13.1707482 C23.9037932,14.7811376 26.3763473,14.7811376 26.3763473,13.1707482 L26.3763473,13.1707482 L26.3763473,13.1707482 Z" id="Shape" fill="#F6A623"></path>
                <path d="M26.3763473,43.1783997 L26.3763473,39.434934 C26.3763473,37.8245446 23.9037932,37.8245446 23.9037932,39.434934 L23.9037932,43.1783997 C23.9037932,44.7887891 26.3763473,44.7887891 26.3763473,43.1783997 L26.3763473,43.1783997 L26.3763473,43.1783997 Z" id="Shape" fill="#F6A623"></path>
                <path d="M12.1363192,25.0546229 L8.4279589,25.0546229 C6.8332792,25.0546229 6.8332792,27.5515349 8.4279589,27.5515349 L12.1363192,27.5515349 C13.7309989,27.5515349 13.7309989,25.0546229 12.1363192,25.0546229 L12.1363192,25.0546229 L12.1363192,25.0546229 Z" id="Shape" fill="#F6A623"></path>
                <path d="M41.8512397,25.0546229 L38.1442923,25.0546229 C36.5496126,25.0546229 36.5496126,27.5515349 38.1442923,27.5515349 L41.8512397,27.5515349 C43.4459194,27.5515349 43.4459194,25.0546229 41.8512397,25.0546229 L41.8512397,25.0546229 L41.8512397,25.0546229 Z" id="Shape" fill="#F6A623"></path>
                <path d="M35.3147484,17.7945538 C36.1883842,16.9118359 37.062491,16.0286424 37.9361268,15.1464002 C39.0645534,14.006857 37.3158689,12.2409457 36.1874423,13.3804888 C35.3138065,14.2632067 34.4396997,15.1464002 33.5660639,16.0286424 C32.4381082,17.1681855 34.1867927,18.9340969 35.3147484,17.7945538 L35.3147484,17.7945538 L35.3147484,17.7945538 Z" id="Shape" fill="#F6A623"></path>
                <path d="M14.0931692,39.2247178 C14.966334,38.3424755 15.8399699,37.4597577 16.7136057,36.577991 C17.8420323,35.4384479 16.0938187,33.6730121 14.9649212,34.8120797 C14.0917563,35.6943219 13.2181205,36.5770398 12.3444847,37.4588065 C11.2160581,38.5988252 12.9642716,40.3642609 14.0931692,39.2247178 L14.0931692,39.2247178 L14.0931692,39.2247178 Z" id="Shape" fill="#F6A623"></path>
                <path d="M16.7140766,16.0286424 C15.8404408,15.1464002 14.966334,14.2632067 14.0931692,13.3804888 C12.9647426,12.2409457 11.217,14.0063814 12.3444847,15.1464002 C13.2181205,16.0286424 14.0922273,16.9118359 14.9653921,17.7945538 C16.0938187,18.9340969 17.8420323,17.1681855 16.7140766,16.0286424 L16.7140766,16.0286424 L16.7140766,16.0286424 Z" id="Shape" fill="#F6A623"></path>
                <path d="M37.9365977,37.4588065 C37.0629619,36.5770398 36.1893261,35.6943219 35.3161613,34.8120797 C34.1877347,33.6725365 32.4395211,35.4379723 33.5674768,36.577991 C34.4411126,37.4597577 35.3147484,38.3424755 36.1879132,39.2247178 C37.3163399,40.3642609 39.0645534,38.5988252 37.9365977,37.4588065 L37.9365977,37.4588065 L37.9365977,37.4588065 Z" id="Shape" fill="#F6A623"></path>
            </g>
        </g>
    </g>
</svg>